<svg width="144" height="144" viewBox="0 0 144 144" fill="none" xmlns="http://www.w3.org/2000/svg">
<rect width="144" height="144" rx="20" fill="#0C0C0C"/>
<path d="M65.2 40.6531C59.5 43.4531 59 45.5531 59 68.1531C59 85.9531 59.3 88.9531 60.9 92.6531C63.3 97.7531 67.2 99.9531 74.1 99.9531C78.5 99.9531 79.6 99.5531 82.5 96.6531C87.2 91.9531 88 87.7531 88 67.6531C88 47.6531 87.2 44.2531 81.8 40.9531C77.7 38.4531 69.9 38.3531 65.2 40.6531ZM76.8 48.1531C78.3 49.6531 78.5 84.1531 77 87.0531C75.8 89.1531 72 89.5531 70.2 87.7531C68.9 86.4531 68.4 48.8531 69.7 47.6531C70.8 46.5531 75.5 46.8531 76.8 48.1531Z" fill="#E50914"/>
<path d="M25 66.653C25 91.053 25.2 93.853 27 97.753C31.7 108.053 45.5 105.653 51.1 93.453C52.7 89.953 53 86.653 53 64.653V39.953H48.5H44V63.953C44 86.653 43.9 88.053 42 89.953C40.9 91.053 39.4 91.953 38.7 91.953C35.3 91.953 35 89.853 35 64.753V39.953H30H25V66.653Z" fill="#E50914"/>
<path d="M93.2 70.153L93.5 100.353L100.5 101.553C107.1 102.653 114.4 104.353 117.6 105.653C118.7 106.053 119 104.953 119 99.653C119 92.353 120 93.253 108.8 90.953L103 89.853V64.853V39.953H98H92.9L93.2 70.153Z" fill="#E50914"/>
</svg>
