<svg width="24" height="24" viewBox="0 0 24 24" fill="none" xmlns="http://www.w3.org/2000/svg">
<path d="M16.5002 17.9851C16.5002 20.4271 15.3602 22.1831 13.4932 22.1831C12.5182 22.1831 12.1522 21.6411 11.8032 20.3881L11.5962 19.6161C11.4952 19.2571 11.3192 18.6461 11.0692 17.7851C11.0624 17.7621 11.0523 17.7402 11.0392 17.7201L8.17322 13.2341C7.49499 12.173 6.49432 11.3574 5.31822 10.9071L4.84522 10.7271C4.24125 10.4955 3.73822 10.0585 3.42456 9.49284C3.1109 8.92715 3.00668 8.269 3.13022 7.63408L3.53422 5.54708C3.65271 4.93779 3.94321 4.37518 4.37135 3.92577C4.79949 3.47636 5.34738 3.15895 5.95022 3.01108L13.5782 1.14108C14.7943 0.843161 16.0788 1.03742 17.1524 1.68162C18.226 2.32582 19.0019 3.36785 19.3112 4.58108L20.7262 10.1311C20.8484 10.6109 20.8593 11.1123 20.7582 11.597C20.657 12.0817 20.4465 12.5369 20.1426 12.9278C19.8387 13.3187 19.4495 13.635 19.0047 13.8525C18.56 14.0701 18.0714 14.1832 17.5762 14.1831H15.7542C16.2502 15.8161 16.5002 17.0761 16.5002 17.9851ZM4.60022 7.92008C4.54432 8.2086 4.59188 8.50759 4.73452 8.76453C4.87717 9.02148 5.10578 9.21995 5.38022 9.32508L5.85422 9.50708C7.32986 10.0721 8.58535 11.0956 9.43622 12.4271L12.3032 16.9121C12.3932 17.0521 12.4622 17.2061 12.5082 17.3661L13.0602 19.2861L13.2722 20.0781C13.4122 20.5661 13.4822 20.6831 13.4922 20.6831C14.3602 20.6831 14.9992 19.6991 14.9992 17.9851C14.9992 17.1001 14.6732 15.6491 14.0152 13.6701C13.9777 13.5574 13.9675 13.4374 13.9854 13.32C14.0033 13.2026 14.0488 13.0911 14.1182 12.9947C14.1877 12.8983 14.279 12.8198 14.3847 12.7657C14.4904 12.7115 14.6074 12.6832 14.7262 12.6831H17.5762C17.8428 12.6829 18.1058 12.6219 18.3451 12.5047C18.5845 12.3874 18.794 12.2171 18.9576 12.0067C19.1212 11.7962 19.2345 11.5512 19.2891 11.2903C19.3436 11.0294 19.3378 10.7594 19.2722 10.5011L17.8572 4.95108C17.6454 4.12101 17.1145 3.40814 16.3798 2.9675C15.6452 2.52686 14.7662 2.39409 13.9342 2.59808L6.30622 4.46808C5.98154 4.54773 5.68646 4.7187 5.4559 4.96078C5.22534 5.20286 5.06895 5.50591 5.00522 5.83408L4.60022 7.92008Z" fill="white"/>
</svg>
