<svg width="24" height="24" viewBox="0 0 24 24" fill="none" xmlns="http://www.w3.org/2000/svg">
<path d="M10.6667 6.05553V13.1666H13.0556V6.05553H10.6667ZM11.8611 23.8333C15.1389 23.8333 17.9352 22.6759 20.25 20.3611C22.5648 18.0463 23.7222 15.2592 23.7222 12C23.7222 8.74072 22.5648 5.95368 20.25 3.63887C17.9352 1.32405 15.1389 0.166643 11.8611 0.166643C8.58333 0.166643 5.78704 1.32405 3.47222 3.63887C1.15741 5.95368 0 8.74072 0 12C0 15.2592 1.15741 18.0463 3.47222 20.3611C5.78704 22.6759 8.58333 23.8333 11.8611 23.8333ZM11.8611 2.49998C14.4722 2.49998 16.7037 3.4259 18.5556 5.27775C20.4074 7.12961 21.3333 9.37035 21.3333 12C21.3333 14.6296 20.4074 16.8703 18.5556 18.7222C16.7037 20.5741 14.4722 21.5 11.8611 21.5C9.25 21.5 7.01852 20.5741 5.16667 18.7222C3.31481 16.8703 2.38889 14.6296 2.38889 12C2.38889 9.37035 3.31481 7.12961 5.16667 5.27775C7.01852 3.4259 9.25 2.49998 11.8611 2.49998ZM10.6667 15.5555V17.9444H13.0556V15.5555H10.6667Z" fill="white"/>
</svg>
