<svg width="20" height="20" viewBox="0 0 20 20" fill="none" xmlns="http://www.w3.org/2000/svg">
<path d="M16.3888 5.60563V3.99061C16.3888 3.71518 16.2514 3.57746 15.9766 3.57746H14.4028C14.128 3.57746 13.9906 3.71518 13.9906 3.99061V5.60563C13.9906 5.85603 14.128 5.98122 14.4028 5.98122H15.9766C16.2514 5.98122 16.3888 5.85603 16.3888 5.60563ZM3.98595 16.4225H15.9766C16.2514 16.4225 16.3888 16.2848 16.3888 16.0094V9.21127H14.7026C14.7525 9.51174 14.7775 9.77465 14.7775 10C14.7775 11.3271 14.3091 12.4601 13.3724 13.3991C12.4356 14.338 11.3052 14.8075 9.98126 14.8075C8.6573 14.8075 7.52693 14.338 6.59016 13.3991C5.6534 12.4601 5.18501 11.3271 5.18501 10C5.18501 9.72457 5.20999 9.46166 5.25995 9.21127H3.61124V16.0094C3.61124 16.2848 3.73614 16.4225 3.98595 16.4225ZM10 6.80751C9.11319 6.80751 8.35753 7.1205 7.73302 7.74648C7.10851 8.37246 6.79625 9.12363 6.79625 10C6.79625 10.8764 7.10851 11.6275 7.73302 12.2535C8.35753 12.8795 9.11319 13.1925 10 13.1925C10.8868 13.1925 11.6425 12.8795 12.267 12.2535C12.8915 11.6275 13.2037 10.8764 13.2037 10C13.2037 9.12363 12.8915 8.37246 12.267 7.74648C11.6425 7.1205 10.8868 6.80751 10 6.80751ZM16.3888 2C16.8384 2 17.2194 2.15649 17.5316 2.46948C17.8439 2.78247 18 3.1518 18 3.57746V16.4225C18 16.8482 17.8439 17.2175 17.5316 17.5305C17.2194 17.8435 16.8384 18 16.3888 18H3.61124C3.16159 18 2.78064 17.8435 2.46838 17.5305C2.15613 17.2175 2 16.8482 2 16.4225V3.57746C2 3.1518 2.15613 2.78247 2.46838 2.46948C2.78064 2.15649 3.16159 2 3.61124 2H16.3888Z" fill="#757575"/>
</svg>
