<svg width="24" height="24" viewBox="0 0 24 24" fill="none" xmlns="http://www.w3.org/2000/svg">
<path d="M16.5 5.20193C16.5 2.75993 15.36 1.00293 13.493 1.00293C12.467 1.00293 12.115 1.60493 11.747 3.00293C11.672 3.29193 11.635 3.43293 11.596 3.57093C11.495 3.92993 11.319 4.54093 11.069 5.40193C11.0621 5.42492 11.052 5.44681 11.039 5.46693L8.17397 9.95293C7.49564 11.0137 6.49496 11.829 5.31897 12.2789L4.84597 12.4599C4.24201 12.6913 3.73891 13.128 3.42508 13.6935C3.11124 14.259 3.00675 14.917 3.12997 15.5519L3.53397 17.6379C3.65219 18.2477 3.94268 18.8108 4.37104 19.2606C4.7994 19.7105 5.34768 20.0281 5.95097 20.1759L13.579 22.0459C14.795 22.3439 16.0796 22.1496 17.1532 21.5054C18.2268 20.8612 19.0026 19.8192 19.312 18.6059L20.727 13.0559C20.8491 12.5761 20.8601 12.0747 20.7589 11.59C20.6578 11.1053 20.4472 10.6501 20.1433 10.2592C19.8395 9.86833 19.4503 9.55202 19.0055 9.33446C18.5607 9.11691 18.0721 9.00385 17.577 9.00393H15.755C16.251 7.37093 16.501 6.11093 16.501 5.20193H16.5ZM4.59997 15.2669C4.54382 14.9783 4.59125 14.679 4.73391 14.4219C4.87657 14.1647 5.10533 13.9661 5.37997 13.8609L5.85397 13.6809C7.32961 13.1159 8.5851 12.0924 9.43597 10.7609L12.303 6.27493C12.393 6.13393 12.462 5.98093 12.508 5.81993C12.76 4.95493 12.936 4.34093 13.038 3.97693C13.082 3.82393 13.123 3.66893 13.197 3.38493C13.387 2.66293 13.48 2.50293 13.492 2.50293C14.36 2.50293 14.999 3.48693 14.999 5.20293C14.999 6.08693 14.673 7.53793 14.015 9.51693C13.9774 9.62962 13.9672 9.74961 13.9851 9.86703C14.003 9.98445 14.0486 10.0959 14.118 10.1923C14.1874 10.2887 14.2787 10.3672 14.3844 10.4214C14.4901 10.4755 14.6072 10.5038 14.726 10.5039H17.576C17.8425 10.5041 18.1055 10.5651 18.3449 10.6823C18.5843 10.7996 18.7938 10.9699 18.9573 11.1804C19.1209 11.3908 19.2343 11.6358 19.2888 11.8967C19.3433 12.1577 19.3376 12.4276 19.272 12.6859L17.857 18.2359C17.6452 19.066 17.1142 19.7789 16.3796 20.2195C15.6449 20.6602 14.766 20.7929 13.934 20.5889L6.30597 18.7189C5.98129 18.6393 5.68621 18.4683 5.45565 18.2262C5.22509 17.9842 5.0687 17.6811 5.00497 17.3529L4.59997 15.2669Z" fill="white"/>
</svg>
