<svg width="22" height="26" viewBox="0 0 22 26" fill="none" xmlns="http://www.w3.org/2000/svg">
<path d="M15.2 3.39995H20C20.96 3.39995 21.6 4.03995 21.6 4.99995V6.59995H0.800049V4.99995C0.800049 4.03995 1.60005 3.39995 2.40005 3.39995H7.20005C7.52005 1.63995 9.28005 0.199951 11.2 0.199951C13.12 0.199951 14.88 1.63995 15.2 3.39995ZM8.80005 3.39995H13.6C13.28 2.43995 12.16 1.79995 11.2 1.79995C10.24 1.79995 9.12005 2.43995 8.80005 3.39995ZM2.40005 8.19995H20L18.56 24.36C18.56 25.16 17.76 25.7999 16.96 25.7999H5.44005C4.64005 25.7999 4.00005 25.16 3.84005 24.36L2.40005 8.19995Z" fill="white"/>
</svg>
