<svg width="800" height="500" viewBox="0 0 800 500" fill="none" xmlns="http://www.w3.org/2000/svg">
<rect width="800" height="500" fill="#333333"/>
<path d="M458.933 184.533L432.733 189.733L451 213.333L464.133 210.666L458.933 184.533V184.533ZM413.133 193.6L400 196.2L418.333 219.733L431.4 217.133L413.133 193.6V193.6ZM380.466 200L367.333 202.733L385.666 226.266L398.733 223.666L380.466 200ZM347.733 206.666L341.2 207.933C337.735 208.625 334.688 210.664 332.725 213.601C330.763 216.538 330.046 220.134 330.733 223.6L333.333 236.666L366 230.2L347.733 206.666ZM333.333 236.666V303.333C333.333 306.869 334.738 310.261 337.238 312.761C339.739 315.262 343.13 316.666 346.666 316.666H453.333C460.733 316.666 466.666 310.733 466.666 303.333V236.666H333.333Z" fill="#606060"/>
</svg>
