<svg width="25" height="25" viewBox="0 0 25 25" fill="none" xmlns="http://www.w3.org/2000/svg">
<path d="M12.5 22.9168C13.6459 22.9168 14.5834 21.9793 14.5834 20.8334H10.4167C10.4167 21.386 10.6362 21.9159 11.0269 22.3066C11.4176 22.6973 11.9475 22.9168 12.5 22.9168ZM18.75 16.6668V11.4584C18.75 8.2605 17.0417 5.58342 14.0625 4.87508V4.16675C14.0625 3.30216 13.3646 2.60425 12.5 2.60425C11.6354 2.60425 10.9375 3.30216 10.9375 4.16675V4.87508C7.94794 5.58342 6.25002 8.25008 6.25002 11.4584V16.6668L4.16669 18.7501V19.7918H20.8334V18.7501L18.75 16.6668Z" fill="white"/>
</svg>
