<svg width="22" height="22" viewBox="0 0 22 22" fill="none" xmlns="http://www.w3.org/2000/svg">
<path d="M21.6727 4.52561C20.9073 4.86478 20.0851 5.09395 19.2206 5.19753C20.1126 4.66384 20.7798 3.82387 21.098 2.83436C20.26 3.3321 19.3429 3.68246 18.3865 3.8702C17.7433 3.18349 16.8914 2.72833 15.9631 2.57538C15.0348 2.42243 14.0819 2.58026 13.2524 3.02434C12.423 3.46843 11.7633 4.17394 11.3759 5.03134C10.9885 5.88874 10.895 6.85005 11.11 7.76603C9.41202 7.68078 7.75096 7.23945 6.23461 6.47069C4.71826 5.70194 3.38049 4.62293 2.30814 3.3037C1.94147 3.9362 1.73064 4.66953 1.73064 5.45053C1.73023 6.15361 1.90337 6.84592 2.23469 7.46603C2.56602 8.08615 3.04528 8.6149 3.62997 9.00536C2.95189 8.98379 2.28877 8.80057 1.6958 8.47095V8.52595C1.69574 9.51204 2.03683 10.4678 2.66122 11.231C3.28561 11.9943 4.15483 12.518 5.12139 12.7133C4.49236 12.8835 3.83286 12.9086 3.19272 12.7866C3.46543 13.6351 3.99663 14.3771 4.71197 14.9086C5.42731 15.4402 6.29098 15.7348 7.18205 15.7511C5.6694 16.9386 3.80128 17.5827 1.87822 17.5799C1.53757 17.58 1.19721 17.5601 0.858887 17.5203C2.81091 18.7754 5.0832 19.4414 7.40389 19.4389C15.2597 19.4389 19.5543 12.9324 19.5543 7.28936C19.5543 7.10603 19.5497 6.92086 19.5415 6.73753C20.3768 6.13342 21.0979 5.38535 21.6709 4.52836L21.6727 4.52561V4.52561Z" fill="#757575"/>
</svg>
