<?xml version="1.0" standalone="no"?>
<!DOCTYPE svg PUBLIC "-//W3C//DTD SVG 20010904//EN"
 "http://www.w3.org/TR/2001/REC-SVG-20010904/DTD/svg10.dtd">
<svg version="1.0" xmlns="http://www.w3.org/2000/svg"
 width="226.000000pt" height="86.000000pt" viewBox="0 0 226.000000 86.000000"
 preserveAspectRatio="xMidYMid meet">

<g transform="translate(0.000000,86.000000) scale(0.100000,-0.100000)"
fill="#e50914" stroke="none">
<path d="M502 743 c-57 -28 -62 -49 -62 -275 0 -182 2 -206 19 -234 34 -56
131 -69 203 -26 57 33 68 78 68 270 0 195 -8 229 -62 262 -41 25 -119 26 -166
3z m118 -82 c6 -11 10 -90 10 -185 0 -153 -2 -168 -20 -186 -23 -23 -41 -25
-58 -8 -17 17 -17 369 0 386 18 18 56 14 68 -7z"/>
<path d="M100 490 c0 -279 3 -300 52 -334 55 -39 174 -2 209 64 17 31 19 60
19 282 l0 248 -45 0 -45 0 0 -239 c0 -204 -2 -242 -16 -255 -18 -19 -45 -21
-62 -4 -9 9 -12 79 -12 255 l0 243 -50 0 -50 0 0 -260z"/>
<path d="M780 480 l0 -270 48 0 c26 0 84 3 130 7 l82 6 0 38 0 39 -80 0 -80 0
0 225 0 225 -50 0 -50 0 0 -270z"/>
<path d="M1080 485 l0 -265 50 0 50 0 0 115 0 115 60 0 60 0 0 40 0 40 -60 0
-60 0 0 70 0 70 75 0 75 0 0 40 0 40 -125 0 -125 0 0 -265z"/>
<path d="M1370 480 l0 -270 53 0 c30 0 89 -3 131 -7 l77 -6 -3 44 -3 44 -45 3
c-25 1 -60 5 -77 7 l-33 6 0 224 0 225 -50 0 -50 0 0 -270z"/>
<path d="M1662 473 l3 -278 48 -3 47 -3 0 280 0 281 -50 0 -50 0 2 -277z"/>
<path d="M1862 615 l50 -135 -53 -146 c-28 -79 -50 -147 -47 -149 2 -2 22 -7
45 -11 l41 -6 37 113 c43 128 37 130 85 -28 27 -90 34 -103 55 -108 14 -3 36
-7 50 -10 17 -4 25 -1 25 8 0 7 -23 84 -50 170 l-50 156 34 98 c19 54 41 117
50 141 l15 42 -47 0 -47 0 -35 -100 -34 -101 -36 101 -35 100 -51 0 -51 0 49
-135z"/>
</g>
</svg>
