<svg width="22" height="22" viewBox="0 0 22 22" fill="none" xmlns="http://www.w3.org/2000/svg">
<g clip-path="url(#clip0)">
<path d="M21.5416 5.96474C21.4171 5.52037 21.1744 5.11806 20.8395 4.80057C20.4951 4.47333 20.0729 4.23924 19.613 4.1204C17.8915 3.66665 10.9945 3.66666 10.9945 3.66666C8.11918 3.63394 5.2446 3.77782 2.38696 4.09749C1.92696 4.2251 1.50564 4.46442 1.16046 4.79416C0.821289 5.12049 0.575622 5.52291 0.447289 5.96382C0.139007 7.62459 -0.0107769 9.31089 -4.46003e-05 11C-0.0110446 12.6876 0.138372 14.3733 0.447289 16.0362C0.572872 16.4752 0.817622 16.8758 1.15771 17.1994C1.49779 17.523 1.92129 17.7567 2.38696 17.8805C4.13137 18.3333 10.9945 18.3333 10.9945 18.3333C13.8734 18.3661 16.7516 18.2222 19.613 17.9025C20.0729 17.7837 20.4951 17.5496 20.8395 17.2223C21.1786 16.8987 21.4197 16.4963 21.5407 16.0582C21.857 14.398 22.0108 12.711 22 11.0211C22.0237 9.32396 21.8701 7.62901 21.5416 5.96382V5.96474ZM8.80179 14.1387V7.86224L14.5401 11.0009L8.80179 14.1387Z" fill="#757575"/>
</g>
<defs>
<clipPath id="clip0">
<rect width="22" height="22" fill="white"/>
</clipPath>
</defs>
</svg>
